<svg id="visual" viewBox="0 0 900 600" width="900" height="600" xmlns="http://www.w3.org/2000/svg" xmlns:xlink="http://www.w3.org/1999/xlink" version="1.1"><path d="M0 139L82 49L164 73L245 151L327 145L409 103L491 115L573 103L655 157L736 55L818 97L900 145L900 0L818 0L736 0L655 0L573 0L491 0L409 0L327 0L245 0L164 0L82 0L0 0Z" fill="#00cc8e"></path><path d="M0 367L82 229L164 205L245 259L327 295L409 235L491 223L573 235L655 313L736 163L818 223L900 331L900 143L818 95L736 53L655 155L573 101L491 113L409 101L327 143L245 149L164 71L82 47L0 137Z" fill="#00b98a"></path><path d="M0 481L82 427L164 487L245 421L327 445L409 445L491 463L573 421L655 505L736 415L818 403L900 427L900 329L818 221L736 161L655 311L573 233L491 221L409 233L327 293L245 257L164 203L82 227L0 365Z" fill="#00a784"></path><path d="M0 535L82 535L164 529L245 511L327 517L409 559L491 529L573 517L655 559L736 517L818 511L900 529L900 425L818 401L736 413L655 503L573 419L491 461L409 443L327 443L245 419L164 485L82 425L0 479Z" fill="#00957c"></path><path d="M0 601L82 601L164 601L245 601L327 601L409 601L491 601L573 601L655 601L736 601L818 601L900 601L900 527L818 509L736 515L655 557L573 515L491 527L409 557L327 515L245 509L164 527L82 533L0 533Z" fill="#038373"></path></svg>